HIERARCHY
ROOT Hips
{
  OFFSET 0.382225 96.6805 0.598322
  CHANNELS 6 Xposition Yposition Zposition Zrotation Xrotation Yrotation
  JOINT Spine
  {
    OFFSET 10.8089 -0.851416 0
    CHANNELS 3 Zrotation Xrotation Yrotation
    JOINT Spine1
    {
      OFFSET 18.8753 3.80116 0
      CHANNELS 3 Zrotation Xrotation Yrotation
      JOINT Spine2
      {
        OFFSET 13.4073 0.420477 0
        CHANNELS 3 Zrotation Xrotation Yrotation
        JOINT LeftShoulder
        {
          OFFSET 11.8837 -2.73209 -3.78198
          CHANNELS 3 Zrotation Xrotation Yrotation
          JOINT LeftArm
          {
            OFFSET 15.7849 0 -2.35849e-005
            CHANNELS 3 Zrotation Xrotation Yrotation
            JOINT LeftForeArm
            {
              OFFSET 30.3399 0 0
              CHANNELS 3 Zrotation Xrotation Yrotation
              JOINT LeftHand
              {
                OFFSET 26.9751 0 2.45913e-005
                CHANNELS 3 Zrotation Xrotation Yrotation
                End Site
                {
                  OFFSET 8 0 0
                }
              }
            }
          }
        }
        JOINT RightShoulder
        {
          OFFSET 11.8838 -2.7321 3.782
          CHANNELS 3 Zrotation Xrotation Yrotation
          JOINT RightArm
          {
            OFFSET -15.7848 0 -1.07056e-005
            CHANNELS 3 Zrotation Xrotation Yrotation
            JOINT RightForeArm
            {
              OFFSET -30.34 1.02096e-005 -2.53607e-005
              CHANNELS 3 Zrotation Xrotation Yrotation
              JOINT RightHand
              {
                OFFSET -26.9752 2.07668e-005 0
                CHANNELS 3 Zrotation Xrotation Yrotation
                End Site
                {
                  OFFSET -8 0 0
                }
              }
            }
          }
        }
        JOINT Neck
        {
          OFFSET 16.5588 -0.355318 0
          CHANNELS 3 Zrotation Xrotation Yrotation
          JOINT Head
          {
            OFFSET 9.28361 0.364157 0
            CHANNELS 3 Zrotation Xrotation Yrotation
            End Site
            {
              OFFSET 0 0 0
            }
          }
        }
      }
    }
  }
  JOINT LeftUpLeg
  {
    OFFSET -1.44883 -0.531424 -9.00581
    CHANNELS 3 Zrotation Xrotation Yrotation
    JOINT LeftLeg
    {
      OFFSET -42.572 0.0788889 -0.011964
      CHANNELS 3 Zrotation Xrotation Yrotation
      JOINT LeftFoot
      {
        OFFSET -40.1967 0 0
        CHANNELS 3 Zrotation Xrotation Yrotation
				JOINT LeftToe
        {
          OFFSET -10.4538 -16.5779 0.0801563
          CHANNELS 3 Zrotation Xrotation Yrotation
          End Site
          {
            OFFSET -1.0 -1.0 0.0
          }
        }
      }
    }
  }
  JOINT RightUpLeg
  {
    OFFSET -1.44865 -0.531427 9.0058
    CHANNELS 3 Zrotation Xrotation Yrotation
    JOINT RightLeg
    {
      OFFSET 42.5723 -3.24776e-005 0
      CHANNELS 3 Zrotation Xrotation Yrotation
      JOINT RightFoot
      {
        OFFSET 40.1968 0 -1.14003e-005
        CHANNELS 3 Zrotation Xrotation Yrotation
				JOINT RightToe
        {
          OFFSET 10.4538 16.5778 -0.0801573
          CHANNELS 3 Zrotation Xrotation Yrotation
          End Site
          {
            OFFSET -1.0 -1.0 0.0
          }
        }
      }
    }
  }
}
MOTION
Frames:	8
Frame Time:	0.0333333
-24.564 86.7096 63.8649 88.0158 18.3948 -2.60237 -31.8806 24.92 13.551 12.4794 0.0751758 0.153704 2.7794 1.93418e-006 1.65929e-005 -3.62575 28.4601 85.1526 0.874406 13.8137 61.3231 -108.857 25.3338 -18.2361 170.659 -54.0633 -166.116 -175.67 -1.57019 60.8981 -33.3533 -16.1175 -5.39407 -10.1764 -7.21456 -0.512586 -10.0324 -78.2382 -3.32852 -23.508 4.63459e-006 -5.90926e-006 7.96616 -30.0756 25.8118 41.2743 -9.09502 -1.25216 -35.8642 -4.81942 -0.961994 -1.58601 -9.50681 1.94187 -90 0 0 -164.182 12.6656 -24.9376 -45.8431 -3.141 -3.4427 17.9544 30.2338 -17.7699 -90 0 0
-24.1911 86.7708 64.1711 89.5075 18.0155 -3.8433 -32.299 26.9489 12.4532 14.3507 -0.0140845 -0.027653 2.7794 1.93418e-006 1.65929e-005 -3.13996 23.9765 84.442 -3.84716 1.58415 55.2002 -105.828 23.9224 -18.7819 177.612 -54.2874 -161.017 -178.688 -11.3362 63.3128 -50.2535 -26.637 -3.23122 -18.6632 -7.78042 -1.04149 -179.959 -85.7604 -171.722 -23.508 4.63459e-006 -5.90926e-006 15.1402 -41.9094 24.0637 39.5986 -7.30081 -1.40623 -35.7032 -4.82598 -0.949776 -1.86452 -10.0555 1.86806 -90 0 0 -165.373 9.08253 -25.5862 -46.6447 -3.07652 -3.53505 17.9162 28.4879 -14.3656 -90 0 0
-23.4027 87.2069 64.5211 90.5884 16.7082 -4.92444 -32.146 26.2065 12.6346 15.1984 -0.0564625 -0.108835 2.7794 1.93418e-006 1.65929e-005 -3.28157 23.193 85.0386 -13.1629 -10.2974 46.138 -101.941 22.0427 -19.3638 -175.62 -62.446 -155.904 -179.057 -17.6045 72.8542 -63.6059 -46.383 7.73877 -26.5089 -8.22911 -1.5988 -12.9605 -79.984 -2.80134 -23.508 4.63459e-006 -5.90926e-006 18.7659 -53.6985 18.0448 37.0551 -5.65921 -2.13962 -34.4137 -4.91366 -0.827645 -1.76717 -10.1763 2.03778 -90 0 0 -167.104 7.27009 -26.7117 -46.2361 -3.16821 -3.48197 16.8222 26.9684 -9.1362 -90 0 0
-22.9662 87.7397 64.807 91.1811 15.5557 -4.54031 -31.3882 25.1884 11.5659 15.0445 -0.0486743 -0.094141 2.7794 1.93418e-006 1.65929e-005 -2.45949 19.8232 82.2738 -19.2587 -16.366 41.531 -99.5771 20.8675 -19.6504 -172.967 -62.5125 -153.149 -178.257 -16.5905 76.8483 -54.9998 -56.9718 40.985 -39.9358 -8.80706 -2.67751 -20.0467 -84.054 -10.3827 -23.508 4.63459e-006 -5.90926e-006 19.0435 -63.3159 10.8574 35.7096 -6.05742 -3.18695 -34.1115 -4.93164 -0.803072 -2.11015 -9.35163 2.0807 -90 0 0 -169.352 6.32365 -26.6192 -44.4464 -3.42942 -3.25859 15.1909 25.6437 -2.92274 -90 0 0
-23.2309 88.5231 64.7101 91.6491 12.2843 -3.14734 -30.6167 24.4686 9.53475 13.7938 0.0131223 0.0260221 2.7794 1.93418e-006 1.65929e-005 -2.32482 18.0259 81.6068 -26.8084 -21.2618 34.29 -96.0388 19.0666 -19.9826 -169.418 -61.6348 -149.595 -177.625 -10.1463 80.0173 -54.2363 -50.157 63.3806 -56.0902 -9.15082 -4.10925 6.17744 -81.031 16.8096 -23.508 4.63459e-006 -5.90926e-006 19.8556 -67.1677 7.6628 35.4781 -5.84607 -5.34843 -35.7218 -4.81327 -0.964877 -3.72901 -7.68435 1.5693 -90 0 0 -171.47 3.08776 -25.5091 -41.591 -3.79802 -2.89418 11.9986 23.3504 2.56409 -90 0 0
-23.9656 89.3491 64.192 92.6403 6.56745 -1.63907 -30.1439 20.4964 7.46082 11.3506 0.126156 0.264478 2.7794 1.93418e-006 1.65929e-005 -2.30818 19.5277 81.6399 -35.1006 -25.4954 24.4525 -91.1406 16.5044 -20.2472 -168.19 -61.3348 -147.837 -177.694 -4.93985 85.814 -65.8218 -32.9939 63.2737 -74.7478 -9.04111 -5.80517 47.0311 -80.8266 57.854 -23.508 4.63459e-006 -5.90926e-006 20.4281 -63.9472 6.1992 34.9333 -5.39962 -8.06169 -38.4637 -4.64544 -1.28367 -5.82196 -4.37936 2.54693 -90 0 0 -172.425 -1.80838 -24.5169 -39.0378 -4.10464 -2.56257 7.57894 20.0182 6.38988 -90 0 0
-24.8069 89.8389 63.1432 94.2534 -0.0102079 0.329955 -30.2767 14.2736 6.02691 10.3668 0.168756 0.361805 2.7794 1.93418e-006 1.65929e-005 -1.65446 19.0434 78.8191 -40.5297 -26.0437 17.7129 -85.2588 13.3693 -20.2601 -166.279 -58.9498 -146.067 -178.329 -1.70496 92.8773 -69.8552 -10.6264 56.8006 -90.7331 -8.52292 -7.16623 100.969 -75.505 113.426 -23.508 4.63459e-006 -5.90926e-006 14.8679 -57.8436 3.49379 34.0014 -6.16279 -10.2278 -44.9697 -4.17705 -1.9494 -3.69393 -7.9051 5.25266 -90 0 0 -172.114 -5.89459 -23.4711 -36.9931 -4.33042 -2.2996 2.82955 15.9892 8.74181 -90 0 0
-25.5308 90.0198 62.0841 95.4392 -6.59658 3.6957 -30.2129 7.33923 5.40555 12.0285 0.0958164 0.197837 2.7794 1.93418e-006 1.65929e-005 -1.25652 14.5402 74.6203 -42.3388 -23.4601 14.5237 -78.8102 9.90449 -19.8922 -162.099 -60.5661 -141.927 -179.291 0.875877 98.1214 -62.7452 5.92216 52.1103 -94.5084 -8.34658 -7.4627 128.106 -66.3609 141.119 -23.508 4.63459e-006 -5.90926e-006 3.17458 -49.4505 -2.43803 32.1315 -6.6953 -13.1606 -49.6062 -3.88009 -2.37145 0.138235 -15.573 10.6227 -90 0 0 -171.11 -9.63561 -20.797 -34.3631 -4.58038 -1.95256 -1.47891 12.4293 10.0991 -90 0 0
